<svg width="5015" height="4418" viewBox="0 0 5015 4418" fill="none" xmlns="http://www.w3.org/2000/svg">
<path d="M4002.73 1923.92L3885.59 2604.66L4578.57 2635.46L4617.95 3521.56L3737.53 3482.43L3589.21 4354.52L2680.39 4314.13L2828.71 3442.04L1880.12 3399.88L1731.81 4271.97L828.669 4231.83L976.983 3359.74L147.684 3322.88L108.301 2436.78L1125.05 2481.97L1242.18 1801.23L435.603 1765.39L396.221 879.285L1395.92 923.716L1539.32 68.4141L2442.46 108.554L2299.07 963.856L3247.65 1006.02L3391.04 150.713L4299.86 191.105L4156.47 1046.41L4866.49 1077.96L4905.87 1964.06L4002.73 1923.92ZM3093.91 1883.53L2145.32 1841.37L2028.19 2522.11L2976.77 2564.27L3093.91 1883.53Z" fill="#5EE6A8"/>
</svg>
